<mxfile host="app.diagrams.net" agent="Mozilla/5.0 (Windows NT 10.0; Win64; x64; rv:138.0) Gecko/20100101 Firefox/138.0" version="27.0.6">
  <diagram name="Страница — 1" id="SHtKfb9bk1ScCOhftmMR">
    <mxGraphModel dx="1023" dy="1110" grid="1" gridSize="10" guides="1" tooltips="1" connect="1" arrows="1" fold="1" page="1" pageScale="1" pageWidth="827" pageHeight="1169" math="0" shadow="0">
      <root>
        <mxCell id="0" />
        <mxCell id="1" parent="0" />
        <mxCell id="gdnxWhCH2nP8TQnxxJB4-7" style="edgeStyle=orthogonalEdgeStyle;rounded=0;orthogonalLoop=1;jettySize=auto;html=1;exitX=0.5;exitY=1;exitDx=0;exitDy=0;exitPerimeter=0;" edge="1" parent="1" source="gdnxWhCH2nP8TQnxxJB4-1" target="gdnxWhCH2nP8TQnxxJB4-5">
          <mxGeometry relative="1" as="geometry" />
        </mxCell>
        <mxCell id="gdnxWhCH2nP8TQnxxJB4-17" style="edgeStyle=orthogonalEdgeStyle;rounded=0;orthogonalLoop=1;jettySize=auto;html=1;exitX=0.5;exitY=1;exitDx=0;exitDy=0;exitPerimeter=0;" edge="1" parent="1" source="gdnxWhCH2nP8TQnxxJB4-1" target="gdnxWhCH2nP8TQnxxJB4-9">
          <mxGeometry relative="1" as="geometry" />
        </mxCell>
        <mxCell id="gdnxWhCH2nP8TQnxxJB4-19" style="edgeStyle=orthogonalEdgeStyle;rounded=0;orthogonalLoop=1;jettySize=auto;html=1;exitX=0.5;exitY=1;exitDx=0;exitDy=0;exitPerimeter=0;" edge="1" parent="1" source="gdnxWhCH2nP8TQnxxJB4-1" target="gdnxWhCH2nP8TQnxxJB4-18">
          <mxGeometry relative="1" as="geometry" />
        </mxCell>
        <mxCell id="gdnxWhCH2nP8TQnxxJB4-1" value="&lt;div&gt;Главная страница&lt;/div&gt;&lt;div&gt;&lt;br&gt;&lt;/div&gt;" style="shape=mxgraph.cisco.misc.page_icon;html=1;pointerEvents=1;dashed=0;fillColor=#036897;strokeColor=#ffffff;strokeWidth=2;verticalLabelPosition=bottom;verticalAlign=top;align=center;outlineConnect=0;" vertex="1" parent="1">
          <mxGeometry x="580" y="430" width="48" height="69" as="geometry" />
        </mxCell>
        <mxCell id="gdnxWhCH2nP8TQnxxJB4-5" value="&lt;div&gt;Регистрация&lt;/div&gt;" style="shape=mxgraph.cisco.misc.page_icon;html=1;pointerEvents=1;dashed=0;fillColor=#036897;strokeColor=#ffffff;strokeWidth=2;verticalLabelPosition=bottom;verticalAlign=top;align=center;outlineConnect=0;" vertex="1" parent="1">
          <mxGeometry x="480" y="585" width="48" height="69" as="geometry" />
        </mxCell>
        <mxCell id="gdnxWhCH2nP8TQnxxJB4-20" style="edgeStyle=orthogonalEdgeStyle;rounded=0;orthogonalLoop=1;jettySize=auto;html=1;exitX=0.5;exitY=1;exitDx=0;exitDy=0;exitPerimeter=0;" edge="1" parent="1" source="gdnxWhCH2nP8TQnxxJB4-9" target="gdnxWhCH2nP8TQnxxJB4-22">
          <mxGeometry relative="1" as="geometry">
            <mxPoint x="400" y="800" as="targetPoint" />
            <Array as="points">
              <mxPoint x="604" y="730" />
              <mxPoint x="313" y="730" />
            </Array>
          </mxGeometry>
        </mxCell>
        <mxCell id="gdnxWhCH2nP8TQnxxJB4-21" value="Вход администратора" style="edgeLabel;html=1;align=center;verticalAlign=middle;resizable=0;points=[];" vertex="1" connectable="0" parent="gdnxWhCH2nP8TQnxxJB4-20">
          <mxGeometry x="0.1302" y="1" relative="1" as="geometry">
            <mxPoint x="-108" y="22" as="offset" />
          </mxGeometry>
        </mxCell>
        <mxCell id="gdnxWhCH2nP8TQnxxJB4-23" style="edgeStyle=orthogonalEdgeStyle;rounded=0;orthogonalLoop=1;jettySize=auto;html=1;exitX=0.5;exitY=1;exitDx=0;exitDy=0;exitPerimeter=0;" edge="1" parent="1" source="gdnxWhCH2nP8TQnxxJB4-9" target="gdnxWhCH2nP8TQnxxJB4-25">
          <mxGeometry relative="1" as="geometry">
            <mxPoint x="603.6666666666667" y="800" as="targetPoint" />
            <Array as="points">
              <mxPoint x="604" y="730" />
              <mxPoint x="513" y="730" />
            </Array>
          </mxGeometry>
        </mxCell>
        <mxCell id="gdnxWhCH2nP8TQnxxJB4-24" value="Вход библиотекаря" style="edgeLabel;html=1;align=center;verticalAlign=middle;resizable=0;points=[];" vertex="1" connectable="0" parent="gdnxWhCH2nP8TQnxxJB4-23">
          <mxGeometry x="0.2243" y="4" relative="1" as="geometry">
            <mxPoint x="-9" y="22" as="offset" />
          </mxGeometry>
        </mxCell>
        <mxCell id="gdnxWhCH2nP8TQnxxJB4-26" style="edgeStyle=orthogonalEdgeStyle;rounded=0;orthogonalLoop=1;jettySize=auto;html=1;exitX=0.5;exitY=1;exitDx=0;exitDy=0;exitPerimeter=0;" edge="1" parent="1" source="gdnxWhCH2nP8TQnxxJB4-9" target="gdnxWhCH2nP8TQnxxJB4-27">
          <mxGeometry relative="1" as="geometry">
            <mxPoint x="800" y="800" as="targetPoint" />
            <Array as="points">
              <mxPoint x="604" y="730" />
              <mxPoint x="712" y="730" />
            </Array>
          </mxGeometry>
        </mxCell>
        <mxCell id="gdnxWhCH2nP8TQnxxJB4-30" style="edgeStyle=orthogonalEdgeStyle;rounded=0;orthogonalLoop=1;jettySize=auto;html=1;exitX=0.5;exitY=1;exitDx=0;exitDy=0;exitPerimeter=0;" edge="1" parent="1" source="gdnxWhCH2nP8TQnxxJB4-9" target="gdnxWhCH2nP8TQnxxJB4-29">
          <mxGeometry relative="1" as="geometry">
            <Array as="points">
              <mxPoint x="604" y="730" />
              <mxPoint x="923" y="730" />
            </Array>
          </mxGeometry>
        </mxCell>
        <mxCell id="gdnxWhCH2nP8TQnxxJB4-32" value="Вход читеталя" style="edgeLabel;html=1;align=center;verticalAlign=middle;resizable=0;points=[];" vertex="1" connectable="0" parent="gdnxWhCH2nP8TQnxxJB4-30">
          <mxGeometry x="-0.5558" relative="1" as="geometry">
            <mxPoint x="184" y="20" as="offset" />
          </mxGeometry>
        </mxCell>
        <mxCell id="gdnxWhCH2nP8TQnxxJB4-9" value="Войти" style="shape=mxgraph.cisco.misc.page_icon;html=1;pointerEvents=1;dashed=0;fillColor=#036897;strokeColor=#ffffff;strokeWidth=2;verticalLabelPosition=bottom;verticalAlign=top;align=center;outlineConnect=0;" vertex="1" parent="1">
          <mxGeometry x="580" y="585" width="48" height="69" as="geometry" />
        </mxCell>
        <mxCell id="gdnxWhCH2nP8TQnxxJB4-16" value="Меню" style="shape=umlFrame;whiteSpace=wrap;html=1;pointerEvents=0;strokeColor=#FF0000;" vertex="1" parent="1">
          <mxGeometry x="300" y="390" width="600" height="320" as="geometry" />
        </mxCell>
        <mxCell id="gdnxWhCH2nP8TQnxxJB4-18" value="&lt;div&gt;Выйти&lt;/div&gt;" style="shape=mxgraph.cisco.misc.page_icon;html=1;pointerEvents=1;dashed=0;fillColor=#036897;strokeColor=#ffffff;strokeWidth=2;verticalLabelPosition=bottom;verticalAlign=top;align=center;outlineConnect=0;" vertex="1" parent="1">
          <mxGeometry x="680" y="585" width="48" height="69" as="geometry" />
        </mxCell>
        <mxCell id="gdnxWhCH2nP8TQnxxJB4-22" value="Админ панель" style="shape=mxgraph.cisco.misc.page_icon;html=1;pointerEvents=1;dashed=0;fillColor=#036897;strokeColor=#ffffff;strokeWidth=2;verticalLabelPosition=bottom;verticalAlign=top;align=center;outlineConnect=0;" vertex="1" parent="1">
          <mxGeometry x="289" y="822" width="48" height="69" as="geometry" />
        </mxCell>
        <mxCell id="gdnxWhCH2nP8TQnxxJB4-38" value="" style="edgeStyle=orthogonalEdgeStyle;rounded=0;orthogonalLoop=1;jettySize=auto;html=1;" edge="1" parent="1" source="gdnxWhCH2nP8TQnxxJB4-25" target="gdnxWhCH2nP8TQnxxJB4-37">
          <mxGeometry relative="1" as="geometry" />
        </mxCell>
        <mxCell id="gdnxWhCH2nP8TQnxxJB4-25" value="Создание выставки" style="shape=mxgraph.cisco.misc.page_icon;html=1;pointerEvents=1;dashed=0;fillColor=#036897;strokeColor=#ffffff;strokeWidth=2;verticalLabelPosition=bottom;verticalAlign=top;align=center;outlineConnect=0;" vertex="1" parent="1">
          <mxGeometry x="489" y="822" width="48" height="69" as="geometry" />
        </mxCell>
        <mxCell id="gdnxWhCH2nP8TQnxxJB4-41" value="" style="edgeStyle=orthogonalEdgeStyle;rounded=0;orthogonalLoop=1;jettySize=auto;html=1;" edge="1" parent="1" source="gdnxWhCH2nP8TQnxxJB4-27" target="gdnxWhCH2nP8TQnxxJB4-40">
          <mxGeometry relative="1" as="geometry" />
        </mxCell>
        <mxCell id="gdnxWhCH2nP8TQnxxJB4-27" value="Выставки" style="shape=mxgraph.cisco.misc.page_icon;html=1;pointerEvents=1;dashed=0;fillColor=#036897;strokeColor=#ffffff;strokeWidth=2;verticalLabelPosition=bottom;verticalAlign=top;align=center;outlineConnect=0;" vertex="1" parent="1">
          <mxGeometry x="688" y="822" width="48" height="69" as="geometry" />
        </mxCell>
        <mxCell id="gdnxWhCH2nP8TQnxxJB4-29" value="Книги" style="shape=mxgraph.cisco.misc.page_icon;html=1;pointerEvents=1;dashed=0;fillColor=#036897;strokeColor=#ffffff;strokeWidth=2;verticalLabelPosition=bottom;verticalAlign=top;align=center;outlineConnect=0;" vertex="1" parent="1">
          <mxGeometry x="899" y="822" width="48" height="69" as="geometry" />
        </mxCell>
        <mxCell id="gdnxWhCH2nP8TQnxxJB4-36" value="" style="rounded=0;whiteSpace=wrap;html=1;fillColor=none;strokeColor=#FF0000;" vertex="1" parent="1">
          <mxGeometry x="640" y="740" width="324" height="360" as="geometry" />
        </mxCell>
        <mxCell id="gdnxWhCH2nP8TQnxxJB4-37" value="Редактирование выставки" style="shape=mxgraph.cisco.misc.page_icon;html=1;pointerEvents=1;dashed=0;fillColor=#036897;strokeColor=#ffffff;strokeWidth=2;verticalLabelPosition=bottom;verticalAlign=top;align=center;outlineConnect=0;" vertex="1" parent="1">
          <mxGeometry x="489" y="971" width="48" height="69" as="geometry" />
        </mxCell>
        <mxCell id="gdnxWhCH2nP8TQnxxJB4-39" value="" style="rounded=0;whiteSpace=wrap;html=1;fillColor=none;strokeColor=#FF0000;" vertex="1" parent="1">
          <mxGeometry x="400" y="740" width="220" height="340" as="geometry" />
        </mxCell>
        <mxCell id="gdnxWhCH2nP8TQnxxJB4-40" value="Просмотр выставки" style="shape=mxgraph.cisco.misc.page_icon;html=1;pointerEvents=1;dashed=0;fillColor=#036897;strokeColor=#ffffff;strokeWidth=2;verticalLabelPosition=bottom;verticalAlign=top;align=center;outlineConnect=0;" vertex="1" parent="1">
          <mxGeometry x="688" y="971" width="48" height="69" as="geometry" />
        </mxCell>
        <mxCell id="gdnxWhCH2nP8TQnxxJB4-42" value="" style="rounded=0;whiteSpace=wrap;html=1;fillColor=none;strokeColor=#FF0000;" vertex="1" parent="1">
          <mxGeometry x="240" y="740" width="140" height="200" as="geometry" />
        </mxCell>
      </root>
    </mxGraphModel>
  </diagram>
</mxfile>
